<?xml version="1.0" encoding="utf-8"?>
<!-- Generator: Adobe Illustrator 27.0.0, SVG Export Plug-In . SVG Version: 6.00 Build 0)  -->
<svg version="1.1" id="Capa_1" xmlns="http://www.w3.org/2000/svg" xmlns:xlink="http://www.w3.org/1999/xlink" x="0px" y="0px"
	 viewBox="0 0 500 500" style="enable-background:new 0 0 500 500;" xml:space="preserve">
<style type="text/css">
	.st0{fill:none;stroke:#FF0000;stroke-width:14.9938;stroke-linecap:round;stroke-miterlimit:10;}
</style>
<g>
	<g id="O_00000156547478102771910180000008717260912641012876_">
		<g>
			<path class="st0" d="M250.2,483.3c-21.9,0-41.5-9.9-54.5-25.5l-160-160C8,270.1,8,225.2,35.7,197.5c4.2-4.2,8.8-7.8,13.8-10.7
				L195.7,333c13,15.6,32.6,25.5,54.5,25.5c22.8,0,43-10.8,56-27.4l144.3-144.3c4.9,2.9,9.5,6.5,13.8,10.7
				c27.7,27.7,27.7,72.6,0,100.3L306.2,455.9C293.2,472.5,273,483.3,250.2,483.3z"/>
		</g>
		<path class="st0" d="M296.5,289.6l160.8-160.8c12.4-12.3,19.1-28.7,19.1-46.2c0-17.5-6.8-33.9-19.1-46.2
			c-12.4-12.3-28.8-19.1-46.2-19.1c-17.5,0-33.9,6.8-46.2,19.1L250.3,151L135.2,35.9C122.8,23.5,106.4,16.7,89,16.7
			s-33.9,6.8-46.2,19.1C30.4,48.2,23.6,64.6,23.6,82.1c0,17.4,6.8,33.9,19.1,46.2l161.3,161.3c12.3,12.3,28.7,19.1,46.2,19.1
			C267.7,308.8,284.1,301.9,296.5,289.6z"/>
	</g>
</g>
</svg>
