<?xml version="1.0" encoding="utf-8"?>
<!-- Generator: Adobe Illustrator 27.0.0, SVG Export Plug-In . SVG Version: 6.00 Build 0)  -->
<svg version="1.1" id="Capa_1" xmlns="http://www.w3.org/2000/svg" xmlns:xlink="http://www.w3.org/1999/xlink" x="0px" y="0px"
	 viewBox="0 0 500 500" style="enable-background:new 0 0 500 500;" xml:space="preserve">
<style type="text/css">
	.st0{fill:none;stroke:#00FF42;stroke-width:14.9938;stroke-linecap:round;stroke-miterlimit:10;}
</style>
<g>
	<g id="O_00000156547478102771910180000008717260912641012876_">
		<g>
			<path class="st0" d="M249.8,16.7c21.9,0,41.5,9.9,54.5,25.5l160,160c27.7,27.7,27.7,72.6,0,100.3c-4.2,4.2-8.8,7.8-13.8,10.7
				L304.3,167c-13-15.6-32.6-25.5-54.5-25.5c-22.8,0-43,10.8-56,27.4L49.5,313.2c-4.9-2.9-9.5-6.5-13.8-10.7
				C8,274.8,8,229.9,35.7,202.2L193.8,44.1C206.8,27.5,227,16.7,249.8,16.7z"/>
		</g>
		<path class="st0" d="M203.5,210.4L42.7,371.2c-12.4,12.3-19.1,28.7-19.1,46.2c0,17.5,6.8,33.9,19.1,46.2
			c12.4,12.3,28.8,19.1,46.2,19.1c17.5,0,33.9-6.8,46.2-19.1L249.7,349l115.1,115.1c12.3,12.3,28.8,19.1,46.2,19.1
			s33.9-6.8,46.2-19.1c12.3-12.3,19.1-28.7,19.1-46.2c0-17.4-6.8-33.9-19.1-46.2L295.9,210.4c-12.3-12.3-28.7-19.1-46.2-19.1
			C232.3,191.2,215.9,198.1,203.5,210.4z"/>
	</g>
</g>
</svg>
